name rise49.5252peak65.1548fall88.8305.mot
datacolumns 19
datarows 17
range 7.64329700000000 7.66996700000000
endheader
time	ground_force1_vx	ground_force1_vy	ground_force1_vz	ground_force1_px	ground_force1_py	ground_force1_pz	ground_force2_vx	ground_force2_vy	ground_force2_vz	ground_force2_px	ground_force2_py	ground_force2_pz	ground_torque1_x	ground_torque1_y	ground_torque1_z	ground_torque2_x	ground_torque2_y	ground_torque2_z	
7.64329700000000	-9.26455000000000	41.84482500000000	-10.24771500000000	0.35212600000000	0.00000000000000	0.08703600000000	-46.88103600000000	813.77881300000001	-54.26336200000000	0.17184700000000	0.00000000000000	-0.08706700000000	0.00000000000000	-7.34813700000000	0.00000000000000	0.00000000000000	-25.13610100000000	0.00000000000000	
7.64496800000000	-10.25881200000000	48.92022800000000	-11.55145000000000	0.35659700000000	0.00000000000000	0.08777100000000	-47.59474700000000	811.92111100000000	-54.03490500000000	0.17100900000000	0.00000000000000	-0.08700200000000	0.00000000000000	-8.35427200000000	0.00000000000000	0.00000000000000	-25.08882400000000	0.00000000000000	
7.64664300000000	-11.10481000000000	56.04755100000000	-12.74616900000000	0.36073800000000	0.00000000000000	0.08844500000000	-48.32645700000000	809.93999899999994	-53.78699300000000	0.17017400000000	0.00000000000000	-0.08693500000000	0.00000000000000	-9.29613300000000	0.00000000000000	0.00000000000000	-25.04122600000000	0.00000000000000	
7.64830300000000	-11.77773200000000	63.13045300000000	-13.80480600000000	0.36459900000000	0.00000000000000	0.08906800000000	-49.07569800000000	807.83254599999998	-53.51919600000000	0.16934300000000	0.00000000000000	-0.08686400000000	0.00000000000000	-10.15285400000000	0.00000000000000	0.00000000000000	-24.99322400000000	0.00000000000000	
7.64996900000000	-12.26229000000000	70.09627600000000	-14.70920500000000	0.36822000000000	0.00000000000000	0.08964700000000	-49.84189500000000	805.59575600000005	-53.23109100000000	0.16851700000000	0.00000000000000	-0.08679000000000	0.00000000000000	-10.90976700000000	0.00000000000000	0.00000000000000	-24.94471700000000	0.00000000000000	
7.65164500000000	-12.55265900000000	76.89817200000000	-15.45027500000000	0.37163300000000	0.00000000000000	0.09018800000000	-50.62436000000000	803.22658200000001	-52.92226700000000	0.16769500000000	0.00000000000000	-0.08671200000000	0.00000000000000	-11.55865500000000	0.00000000000000	0.00000000000000	-24.89558600000000	0.00000000000000	
7.65329600000000	-12.65165800000000	83.51475900000000	-16.02736900000000	0.37486600000000	0.00000000000000	0.09069600000000	-51.42229300000000	800.72192700000005	-52.59233100000000	0.16688000000000	0.00000000000000	-0.08663100000000	0.00000000000000	-12.09743700000000	0.00000000000000	0.00000000000000	-24.84569400000000	0.00000000000000	
7.65497000000000	-12.56936200000000	89.94774300000000	-16.44708900000000	0.37794100000000	0.00000000000000	0.09117500000000	-52.23478400000000	798.07865800000002	-52.24090800000000	0.16607100000000	0.00000000000000	-0.08654600000000	0.00000000000000	-12.52940300000000	0.00000000000000	0.00000000000000	-24.79488400000000	0.00000000000000	
7.65664300000000	-12.32136300000000	96.21805200000000	-16.72169100000000	0.38087600000000	0.00000000000000	0.09162900000000	-53.06080900000000	795.29361300000005	-51.86764400000000	0.16526900000000	0.00000000000000	-0.08645800000000	0.00000000000000	-12.86213500000000	0.00000000000000	0.00000000000000	-24.74298500000000	0.00000000000000	
7.65830300000000	-11.92687600000000	102.36106599999999	-16.86731700000000	0.38368600000000	0.00000000000000	0.09206000000000	-53.89923300000000	792.36360999999999	-51.47221000000000	0.16447600000000	0.00000000000000	-0.08636600000000	0.00000000000000	-13.10626700000000	0.00000000000000	0.00000000000000	-24.68980700000000	0.00000000000000	
7.65996400000000	-11.40688500000000	108.42148800000000	-16.90220600000000	0.38638300000000	0.00000000000000	0.09247200000000	-54.74880900000000	789.28545699999995	-51.05430500000000	0.16369100000000	0.00000000000000	-0.08627000000000	0.00000000000000	-13.27420500000000	0.00000000000000	0.00000000000000	-24.63514300000000	0.00000000000000	
7.66164600000000	-10.78245500000000	114.44835399999999	-16.84505700000000	0.38898000000000	0.00000000000000	0.09286500000000	-55.60818200000000	786.05596300000002	-50.61365900000000	0.16291600000000	0.00000000000000	-0.08617000000000	0.00000000000000	-13.37892300000000	0.00000000000000	0.00000000000000	-24.57877100000000	0.00000000000000	
7.66329700000000	-10.07334300000000	120.49053300000000	-16.71362500000000	0.39148400000000	0.00000000000000	0.09324200000000	-56.47588900000000	782.67195300000003	-50.15003600000000	0.16215200000000	0.00000000000000	-0.08606700000000	0.00000000000000	-13.43291900000000	0.00000000000000	0.00000000000000	-24.52045400000000	0.00000000000000	
7.66496300000000	-9.29693100000000	126.59300399999999	-16.52363900000000	0.39390400000000	0.00000000000000	0.09360400000000	-57.35035900000000	779.13027199999999	-49.66323700000000	0.16139900000000	0.00000000000000	-0.08595900000000	0.00000000000000	-13.44738300000000	0.00000000000000	0.00000000000000	-24.45993900000000	0.00000000000000	
7.66664000000000	-8.46754400000000	132.79405800000001	-16.28806200000000	0.39624500000000	0.00000000000000	0.09395400000000	-58.22992100000000	775.42780400000004	-49.15310300000000	0.16065800000000	0.00000000000000	-0.08584700000000	0.00000000000000	-13.43160900000000	0.00000000000000	0.00000000000000	-24.39696300000000	0.00000000000000	
7.66829900000000	-7.59610300000000	139.12346900000000	-16.01668900000000	0.39851400000000	0.00000000000000	0.09429100000000	-59.11280400000000	771.56148399999995	-48.61952100000000	0.15992900000000	0.00000000000000	-0.08573100000000	0.00000000000000	-13.39265700000000	0.00000000000000	0.00000000000000	-24.33124600000000	0.00000000000000	
7.66996700000000	-6.69010900000000	145.60161099999999	-15.71605600000000	0.40071400000000	0.00000000000000	0.09461700000000	-59.99714000000000	767.52830500000005	-48.06241900000000	0.15921400000000	0.00000000000000	-0.08561100000000	0.00000000000000	-13.33523800000000	0.00000000000000	0.00000000000000	-24.26250000000000	0.00000000000000	
